<?xml version="1.0" standalone="no"?><!DOCTYPE svg PUBLIC "-//W3C//DTD SVG 1.1//EN" "http://www.w3.org/Graphics/SVG/1.1/DTD/svg11.dtd"><svg class="icon" width="200px" height="200.00px" viewBox="0 0 1024 1024" version="1.1" xmlns="http://www.w3.org/2000/svg"><path fill="#979797" d="M167.466667 167.424C131.285333 203.605333 110.933333 259.925333 110.933333 341.333333v213.333334c0 104.448 21.12 158.848 55.253334 188.714666 34.986667 30.634667 90.282667 41.685333 175.146666 41.685334h21.333334c10.837333 0 21.589333 3.413333 30.208 7.68 8.533333 4.224 17.92 10.752 24.533333 19.754666l63.872 85.205334c9.984 13.269333 21.333333 17.92 30.72 17.92 9.386667 0 20.778667-4.650667 30.72-17.92l64-85.333334 0.128-0.128A68.821333 68.821333 0 0 1 661.333333 785.066667h21.333334c81.408 0 137.728-20.352 173.909333-56.490667 36.181333-36.181333 56.490667-92.544 56.490667-173.909333V341.333333c0-81.408-20.309333-137.728-56.490667-173.909333C820.394667 131.242667 764.074667 110.933333 682.666667 110.933333H341.333333c-81.365333 0-137.728 20.309333-173.866666 56.490667z m-36.224-36.181333C180.394667 82.048 252.074667 59.733333 341.333333 59.733333h341.333334c89.301333 0 160.938667 22.314667 210.133333 71.509334C941.952 180.394667 964.266667 252.032 964.266667 341.333333v213.333334c0 89.258667-22.314667 160.938667-71.466667 210.090666C843.605333 813.909333 771.968 836.266667 682.666667 836.266667h-21.333334c-5.077333 0-10.368 2.56-13.696 6.912v0.042666L583.68 928.426667c-18.176 24.277333-43.946667 38.4-71.68 38.4-27.733333 0-53.461333-14.122667-71.68-38.4l-64.213333-85.632s-0.469333-0.597333-1.621334-1.493334A26.026667 26.026667 0 0 0 362.666667 836.266667H341.333333c-85.76 0-158.506667-10.282667-208.853333-54.357334C81.28 737.109333 59.733333 663.552 59.733333 554.666667V341.333333c0-89.301333 22.357333-160.938667 71.509334-210.090666zM639.872 469.333333a42.666667 42.666667 0 0 1 42.666667-42.666666h0.384a42.666667 42.666667 0 1 1 0 85.333333h-0.426667a42.666667 42.666667 0 0 1-42.666667-42.666667zM469.162667 469.333333a42.666667 42.666667 0 0 1 42.666666-42.666666h0.384a42.666667 42.666667 0 0 1 0 85.333333h-0.426666a42.666667 42.666667 0 0 1-42.666667-42.666667zM298.453333 469.333333a42.666667 42.666667 0 0 1 42.666667-42.666666h0.384a42.666667 42.666667 0 1 1 0 85.333333h-0.426667a42.666667 42.666667 0 0 1-42.666666-42.666667z" /></svg>