<?xml version="1.0" standalone="no"?><!DOCTYPE svg PUBLIC "-//W3C//DTD SVG 1.1//EN" "http://www.w3.org/Graphics/SVG/1.1/DTD/svg11.dtd"><svg class="icon" width="200px" height="200.00px" viewBox="0 0 1024 1024" version="1.1" xmlns="http://www.w3.org/2000/svg"><path fill="#979797" d="M898.332444 218.453333a4733.155556 4733.155556 0 0 0-57.059555-117.76 45.340444 45.340444 0 0 0-52.337778-24.462222L549.831111 140.117333a45.283556 45.283556 0 0 0-33.052444 47.388445c1.536 26.624 4.835556 79.075556 9.386666 130.56 1.251556 13.994667 2.218667 26.624 3.015111 37.831111v0.227555c2.275556 30.151111 3.868444 51.939556 9.102223 71.338667a297.699556 297.699556 0 0 0 108.487111 160.768c14.677333 11.150222 30.72 21.390222 47.786666 30.378667 17.066667 8.988444 35.441778 17.009778 54.784 23.836444a482.360889 482.360889 0 0 0 42.325334 12.686222l60.074666 224.312889-68.835555 18.432a23.836444 23.836444 0 0 0-16.497778 29.354667 23.893333 23.893333 0 0 0 28.956445 17.237333l182.840888-48.924444a23.893333 23.893333 0 0 0 16.497778-29.411556 24.348444 24.348444 0 0 0-10.752-14.449777 23.153778 23.153778 0 0 0-18.204444-2.730667l-68.949334 18.488889-60.017777-224.312889 5.518222-5.461333c7.566222-7.566222 14.791111-15.303111 21.617778-23.04 13.596444-15.530667 25.827556-31.573333 36.295111-47.843556 10.524444-16.327111 19.626667-33.166222 27.022222-50.119111 7.395556-17.066667 13.255111-34.588444 17.464889-52.224l0.853333-3.697778a297.472 297.472 0 0 0-2.958222-141.539555c-5.176889-19.285333-14.620444-38.855111-27.648-65.934223l-0.284444-0.625777a2800.412444 2800.412444 0 0 1-16.327112-34.190223z m-318.464 194.673778c-3.470222-14.620444-4.778667-32.085333-6.712888-58.368l-0.056889-0.625778-0.227556-2.616889c-0.796444-10.865778-1.706667-23.04-2.901333-36.807111a4670.748444 4670.748444 0 0 1-9.329778-129.251555c-0.056889-0.967111 0.284444-1.706667 0.853333-1.820445l239.047111-64c0.568889-0.170667 1.251556 0.341333 1.706667 1.137778 11.776 23.608889 34.872889 70.200889 56.490667 116.622222 6.257778 13.482667 11.946667 25.258667 16.952889 35.612445 6.997333 14.506667 12.515556 26.055111 16.896 36.295111l0.739555 1.706667a158.663111 158.663111 0 0 1 9.386667 29.980444l0.227555 0.853333v0.113778c9.386667 38.058667 9.784889 76.572444 1.251556 114.631111-11.889778 53.020444-41.130667 103.708444-86.983111 150.755556a27.477333 27.477333 0 0 1-12.401778 7.111111 27.534222 27.534222 0 0 1-14.336 0.113778 384.056889 384.056889 0 0 1-0.113778-0.056889 27.534222 27.534222 0 0 0 14.336-0.113778 27.079111 27.079111 0 0 0 12.401778-7.111111c45.852444-47.047111 75.093333-97.735111 87.04-150.755556a248.263111 248.263111 0 0 0-1.251555-114.631111V341.902222l-0.284445-0.910222a160.426667 160.426667 0 0 0-9.443555-29.980444l-0.682667-1.706667c-31.175111 7.168-83.626667 27.534222-150.357333 71.509333-63.146667 41.642667-124.131556 43.235556-161.166223 36.693334l-0.284444-1.251556a53.76 53.76 0 0 1-0.796445-3.072zM494.933333 359.936v0.739556c-2.275556 29.923556-3.925333 51.598222-9.159111 70.940444a297.130667 297.130667 0 0 1-68.209778 124.017778l-0.853333 0.967111-1.706667 1.877333a312.035556 312.035556 0 0 1-41.244444 36.408889c-14.904889 11.036444-31.175111 21.048889-48.469333 29.923556-17.237333 8.817778-35.84 16.668444-55.352889 23.324444a491.178667 491.178667 0 0 1-37.603556 11.036445L172.145778 883.484444l68.949333 18.488889c6.200889 1.706667 11.320889 5.688889 14.392889 11.434667a24.348444 24.348444 0 0 1 2.104889 17.976889 23.893333 23.893333 0 0 1-29.013333 17.180444l-182.840889-49.038222a23.893333 23.893333 0 0 1-16.497778-29.411555 23.893333 23.893333 0 0 1 29.013333-17.180445l68.835556 18.545778 60.188444-224.312889a491.235556 491.235556 0 0 1-30.435555-32.312889 410.624 410.624 0 0 1-35.498667-47.957333 344.177778 344.177778 0 0 1-26.168889-50.232889 297.472 297.472 0 0 1-13.596444-193.536c5.12-19.285333 14.620444-38.912 27.704889-65.991111l0.682666-1.479111c4.721778-9.841778 10.126222-20.935111 15.815111-33.223111 21.845333-46.933333 45.169778-93.980444 57.116445-117.816889a45.397333 45.397333 0 0 1 52.337778-24.462223l239.104 64.113778c20.821333 5.575111 34.417778 25.031111 33.109333 47.331556-1.592889 26.680889-4.892444 79.075556-9.500445 130.616889-1.251556 13.937778-2.161778 26.567111-3.015111 37.717333z m-370.915555-25.372444a19.911111 19.911111 0 0 0-0.398222 1.308444c28.728889 24.120889 82.432 53.304889 157.923555 48.810667 79.758222-4.721778 135.395556 3.868444 166.001778 13.255111l-0.227556 1.820444a152.291556 152.291556 0 0 1-7.111111 31.573334l0.284445-0.910223a152.291556 152.291556 0 0 0 6.826666-30.72l0.227556-1.763555c1.308444-10.808889 2.275556-23.324444 3.413333-38.912l0.284445-3.868445c0.796444-10.752 1.706667-22.869333 2.901333-36.408889 4.551111-51.029333 7.850667-102.912 9.443556-129.308444 0-0.853333-0.284444-1.592889-0.853334-1.763556L223.687111 123.562667c-0.568889-0.170667-1.251556 0.284444-1.706667 1.137777a4735.943111 4735.943111 0 0 0-56.490666 116.622223c-6.144 13.198222-11.719111 24.689778-16.668445 34.929777l-0.341333 0.739556c-11.662222 24.064-19.342222 39.992889-23.665778 54.499556l-0.853333 3.072z" /></svg>