<svg class="icon" width="200px" height="200.00px" viewBox="0 0 1024 1024" version="1.1" xmlns="http://www.w3.org/2000/svg"><path fill="#979797" d="M511.83787 0C308.642796 0 143.36 169.622646 143.36 378.099236c0 68.65971 30.010475 142.47811 31.238735 145.589701a614.948623 614.948623 0 0 0 42.579665 81.720203l252.693935 392.797409C480.189715 1014.337691 495.461076 1023.549638 511.83787 1023.549638c16.376794 0 31.648155-9.211947 41.965535-25.302147l252.693935-392.838351c13.797449-21.494542 32.876414-58.137619 42.579665-81.720203 1.22826-3.111591 31.238735-76.929991 31.238734-145.589701C880.315739 169.622646 715.032944 0 511.83787 0z m297.238815 506.452361c-8.597817 21.126065-26.407581 55.230738-38.772061 74.473472L517.569748 973.764184c-4.95398 7.778977-6.550718 7.778977-11.54564 0l-252.652993-392.838351a563.648315 563.648315 0 0 1-38.813002-74.514414c-0.40942-0.941666-27.881492-68.86442-27.881492-128.312183C186.717563 194.146895 332.511973 44.462996 511.83787 44.462996s325.120307 149.683899 325.120307 333.677182c0 59.488705-27.553956 127.616169-27.84055 128.271241zM511.83787 177.974811c-107.595538 0-195.088561 89.785774-195.088561 200.165367 0 110.338651 87.493023 200.165367 195.088561 200.165368 107.554596 0 195.047619-89.826716 195.047619-200.20631 0-110.338651-87.493023-200.124425-195.047619-200.124425z m0 355.826796c-83.644476 0-151.730998-69.806085-151.730999-155.661429S428.193393 222.437807 511.83787 222.437807s151.730998 69.847027 151.730998 155.702371S595.482346 533.801607 511.83787 533.801607z" /></svg>
